<?xml version="1.0" encoding="UTF-8" standalone="no"?>
<!DOCTYPE svg PUBLIC "-//W3C//DTD SVG 1.1//EN"
 "http://www.w3.org/Graphics/SVG/1.1/DTD/svg11.dtd">
<!-- Generated by graphviz version 2.42.4 (0)
 -->
<!-- Title: figstreampos Pages: 1 -->
<svg width="1213pt" height="314pt"
 viewBox="0.00 0.00 1212.75 313.65" xmlns="http://www.w3.org/2000/svg" xmlns:xlink="http://www.w3.org/1999/xlink">
<g id="graph0" class="graph" transform="scale(1 1) rotate(0) translate(4 309.65)">
<title>figstreampos</title>
<polygon fill="white" stroke="transparent" points="-4,4 -4,-309.65 1208.75,-309.65 1208.75,4 -4,4"/>
<!-- traits_pos_type_char -->
<g id="node1" class="node">
<title>traits_pos_type_char</title>
<ellipse fill="none" stroke="black" cx="105.36" cy="-278.78" rx="105.22" ry="26.74"/>
<text text-anchor="middle" x="105.36" y="-282.58" font-family="Times,serif" font-size="14.00">char_traits&lt;char&gt;</text>
<text text-anchor="middle" x="105.36" y="-267.58" font-family="Times,serif" font-size="14.00">::pos_type</text>
</g>
<!-- streampos -->
<g id="node3" class="node">
<title>streampos</title>
<ellipse fill="none" stroke="black" cx="128.36" cy="-163.43" rx="59.59" ry="18"/>
<text text-anchor="middle" x="128.36" y="-159.73" font-family="Times,serif" font-size="14.00">streampos</text>
</g>
<!-- traits_pos_type_char&#45;&gt;streampos -->
<g id="edge1" class="edge">
<title>traits_pos_type_char&#45;&gt;streampos</title>
<path fill="none" stroke="black" d="M110.64,-251.77C114.29,-233.74 119.16,-209.79 122.86,-191.52"/>
<polygon fill="black" stroke="black" points="126.33,-192.01 124.89,-181.52 119.47,-190.62 126.33,-192.01"/>
<text text-anchor="middle" x="192.36" y="-222.71" font-family="Times,serif" font-size="14.00"> iostreams.limits.pos</text>
</g>
<!-- traits_pos_type_wchar_t -->
<g id="node2" class="node">
<title>traits_pos_type_wchar_t</title>
<ellipse fill="none" stroke="black" cx="351.36" cy="-278.78" rx="123.07" ry="26.74"/>
<text text-anchor="middle" x="351.36" y="-282.58" font-family="Times,serif" font-size="14.00">char_traits&lt;wchar_t&gt;</text>
<text text-anchor="middle" x="351.36" y="-267.58" font-family="Times,serif" font-size="14.00">::pos_type</text>
</g>
<!-- wstreampos -->
<g id="node4" class="node">
<title>wstreampos</title>
<ellipse fill="none" stroke="black" cx="304.36" cy="-163.43" rx="67.69" ry="18"/>
<text text-anchor="middle" x="304.36" y="-159.73" font-family="Times,serif" font-size="14.00">wstreampos</text>
</g>
<!-- traits_pos_type_wchar_t&#45;&gt;wstreampos -->
<g id="edge2" class="edge">
<title>traits_pos_type_wchar_t&#45;&gt;wstreampos</title>
<path fill="none" stroke="black" d="M340.58,-251.77C333,-233.49 322.89,-209.11 315.28,-190.76"/>
<polygon fill="black" stroke="black" points="318.51,-189.41 311.44,-181.52 312.04,-192.1 318.51,-189.41"/>
<text text-anchor="middle" x="407.36" y="-222.71" font-family="Times,serif" font-size="14.00"> iostreams.limits.pos</text>
</g>
<!-- fpos -->
<g id="node5" class="node">
<title>fpos</title>
<ellipse fill="none" stroke="black" cx="216.36" cy="-37.48" rx="92.08" ry="18"/>
<text text-anchor="middle" x="216.36" y="-33.78" font-family="Times,serif" font-size="14.00">fpos&lt;mbstate_t&gt;</text>
</g>
<!-- streampos&#45;&gt;fpos -->
<g id="edge3" class="edge">
<title>streampos&#45;&gt;fpos</title>
<path fill="none" stroke="black" d="M130.02,-145.19C132.14,-130.32 136.87,-108.8 147.36,-92.95 155.7,-80.36 167.9,-69.36 179.74,-60.6"/>
<polygon fill="black" stroke="black" points="182.06,-63.25 188.23,-54.63 178.03,-57.52 182.06,-63.25"/>
<text text-anchor="middle" x="211.86" y="-96.75" font-family="Times,serif" font-size="14.00"> iostream.forward</text>
</g>
<!-- wstreampos&#45;&gt;fpos -->
<g id="edge6" class="edge">
<title>wstreampos&#45;&gt;fpos</title>
<path fill="none" stroke="black" d="M299.84,-145.38C295.41,-130.63 287.66,-109.17 276.36,-92.95 268.29,-81.36 257.31,-70.48 246.96,-61.54"/>
<polygon fill="black" stroke="black" points="249.15,-58.81 239.22,-55.1 244.67,-64.19 249.15,-58.81"/>
<text text-anchor="middle" x="349.86" y="-96.75" font-family="Times,serif" font-size="14.00"> iostream.forward</text>
</g>
<!-- traits_off_type_char -->
<g id="node6" class="node">
<title>traits_off_type_char</title>
<ellipse fill="none" stroke="black" cx="597.36" cy="-278.78" rx="105.22" ry="26.74"/>
<text text-anchor="middle" x="597.36" y="-282.58" font-family="Times,serif" font-size="14.00">char_traits&lt;char&gt;</text>
<text text-anchor="middle" x="597.36" y="-267.58" font-family="Times,serif" font-size="14.00">::off_type</text>
</g>
<!-- streamoff -->
<g id="node8" class="node">
<title>streamoff</title>
<ellipse fill="none" stroke="black" cx="705.36" cy="-163.43" rx="55.49" ry="18"/>
<text text-anchor="middle" x="705.36" y="-159.73" font-family="Times,serif" font-size="14.00">streamoff</text>
</g>
<!-- traits_off_type_char&#45;&gt;streamoff -->
<g id="edge4" class="edge">
<title>traits_off_type_char&#45;&gt;streamoff</title>
<path fill="none" stroke="black" d="M621.6,-252.34C639.77,-233.26 664.49,-207.32 682.36,-188.57"/>
<polygon fill="black" stroke="black" points="685.19,-190.67 689.56,-181.01 680.13,-185.84 685.19,-190.67"/>
<text text-anchor="middle" x="726.36" y="-222.71" font-family="Times,serif" font-size="14.00"> iostreams.limits.pos</text>
</g>
<!-- traits_off_type_wchar_t -->
<g id="node7" class="node">
<title>traits_off_type_wchar_t</title>
<ellipse fill="none" stroke="black" cx="843.36" cy="-278.78" rx="123.07" ry="26.74"/>
<text text-anchor="middle" x="843.36" y="-282.58" font-family="Times,serif" font-size="14.00">char_traits&lt;wchar_t&gt;</text>
<text text-anchor="middle" x="843.36" y="-267.58" font-family="Times,serif" font-size="14.00">::off_type</text>
</g>
<!-- traits_off_type_wchar_t&#45;&gt;streamoff -->
<g id="edge5" class="edge">
<title>traits_off_type_wchar_t&#45;&gt;streamoff</title>
<path fill="none" stroke="black" d="M830.47,-251.95C824.02,-240.82 815.43,-228.26 805.36,-218.91 789,-203.72 767.61,-191.33 748.82,-182.23"/>
<polygon fill="black" stroke="black" points="750.1,-178.96 739.55,-177.9 747.13,-185.3 750.1,-178.96"/>
<text text-anchor="middle" x="893.36" y="-222.71" font-family="Times,serif" font-size="14.00"> iostreams.limits.pos</text>
</g>
<!-- streamoff_type -->
<g id="node9" class="node">
<title>streamoff_type</title>
<ellipse fill="none" stroke="black" cx="705.36" cy="-37.48" rx="127.06" ry="37.45"/>
<text text-anchor="middle" x="705.36" y="-48.78" font-family="Times,serif" font-size="14.00">signed integer type</text>
<text text-anchor="middle" x="705.36" y="-33.78" font-family="Times,serif" font-size="14.00">sufficient for</text>
<text text-anchor="middle" x="705.36" y="-18.78" font-family="Times,serif" font-size="14.00"> O/S maximum file size</text>
</g>
<!-- streamoff&#45;&gt;streamoff_type -->
<g id="edge7" class="edge">
<title>streamoff&#45;&gt;streamoff_type</title>
<path fill="none" stroke="black" d="M705.36,-145.19C705.36,-129.7 705.36,-106.22 705.36,-85.23"/>
<polygon fill="black" stroke="black" points="708.86,-85.17 705.36,-75.17 701.86,-85.17 708.86,-85.17"/>
<text text-anchor="middle" x="754.86" y="-96.75" font-family="Times,serif" font-size="14.00"> stream.types</text>
</g>
<!-- streamsize -->
<g id="node10" class="node">
<title>streamsize</title>
<ellipse fill="none" stroke="black" cx="1046.36" cy="-278.78" rx="61.99" ry="18"/>
<text text-anchor="middle" x="1046.36" y="-275.08" font-family="Times,serif" font-size="14.00">streamsize</text>
</g>
<!-- streamsize_type -->
<g id="node11" class="node">
<title>streamsize_type</title>
<ellipse fill="none" stroke="black" cx="1046.36" cy="-163.43" rx="158.28" ry="37.45"/>
<text text-anchor="middle" x="1046.36" y="-174.73" font-family="Times,serif" font-size="14.00">signed integer type</text>
<text text-anchor="middle" x="1046.36" y="-159.73" font-family="Times,serif" font-size="14.00">represents characters xfered</text>
<text text-anchor="middle" x="1046.36" y="-144.73" font-family="Times,serif" font-size="14.00">or buffer sizes</text>
</g>
<!-- streamsize&#45;&gt;streamsize_type -->
<g id="edge8" class="edge">
<title>streamsize&#45;&gt;streamsize_type</title>
<path fill="none" stroke="black" d="M1046.36,-260.56C1046.36,-247.41 1046.36,-228.64 1046.36,-211.16"/>
<polygon fill="black" stroke="black" points="1049.86,-211.08 1046.36,-201.08 1042.86,-211.08 1049.86,-211.08"/>
<text text-anchor="middle" x="1095.86" y="-222.71" font-family="Times,serif" font-size="14.00"> stream.types</text>
</g>
</g>
</svg>
