<?xml version="1.0" encoding="UTF-8" standalone="no"?>
<!DOCTYPE svg PUBLIC "-//W3C//DTD SVG 1.1//EN"
 "http://www.w3.org/Graphics/SVG/1.1/DTD/svg11.dtd">
<!-- Generated by graphviz version 2.42.4 (0)
 -->
<!-- Title: virt Pages: 1 -->
<svg width="386pt" height="182pt"
 viewBox="0.00 0.00 386.00 182.00" xmlns="http://www.w3.org/2000/svg" xmlns:xlink="http://www.w3.org/1999/xlink">
<g id="graph0" class="graph" transform="scale(1 1) rotate(0) translate(4 178)">
<title>virt</title>
<polygon fill="white" stroke="transparent" points="-4,4 -4,-178 382,-178 382,4 -4,4"/>
<!-- W1 -->
<g id="node1" class="node">
<title>W1</title>
<text text-anchor="middle" x="27" y="-150.8" font-family="Times,serif" font-size="24.00">W</text>
</g>
<!-- V -->
<g id="node2" class="node">
<title>V</title>
<text text-anchor="middle" x="189" y="-150.8" font-family="Times,serif" font-size="24.00">V</text>
</g>
<!-- W2 -->
<g id="node3" class="node">
<title>W2</title>
<text text-anchor="middle" x="351" y="-150.8" font-family="Times,serif" font-size="24.00">W</text>
</g>
<!-- B -->
<g id="node4" class="node">
<title>B</title>
<text text-anchor="middle" x="108" y="-80.8" font-family="Times,serif" font-size="24.00">B</text>
</g>
<!-- B&#45;&gt;W1 -->
<g id="edge5" class="edge">
<title>B&#45;&gt;W1</title>
<path fill="none" stroke="black" d="M88.8,-104.12C78.49,-112.77 65.6,-123.6 54.26,-133.12"/>
<polygon fill="black" stroke="black" points="51.75,-130.65 46.34,-139.76 56.25,-136.02 51.75,-130.65"/>
</g>
<!-- B&#45;&gt;V -->
<g id="edge3" class="edge">
<title>B&#45;&gt;V</title>
<path fill="none" stroke="black" d="M127.2,-104.12C137.51,-112.77 150.4,-123.6 161.74,-133.12"/>
<polygon fill="black" stroke="black" points="159.75,-136.02 169.66,-139.76 164.25,-130.65 159.75,-136.02"/>
</g>
<!-- C -->
<g id="node5" class="node">
<title>C</title>
<text text-anchor="middle" x="270" y="-80.8" font-family="Times,serif" font-size="24.00">C</text>
</g>
<!-- C&#45;&gt;V -->
<g id="edge4" class="edge">
<title>C&#45;&gt;V</title>
<path fill="none" stroke="black" d="M250.8,-104.12C240.49,-112.77 227.6,-123.6 216.26,-133.12"/>
<polygon fill="black" stroke="black" points="213.75,-130.65 208.34,-139.76 218.25,-136.02 213.75,-130.65"/>
</g>
<!-- C&#45;&gt;W2 -->
<g id="edge6" class="edge">
<title>C&#45;&gt;W2</title>
<path fill="none" stroke="black" d="M289.2,-104.12C299.51,-112.77 312.4,-123.6 323.74,-133.12"/>
<polygon fill="black" stroke="black" points="321.75,-136.02 331.66,-139.76 326.25,-130.65 321.75,-136.02"/>
</g>
<!-- D -->
<g id="node6" class="node">
<title>D</title>
<text text-anchor="middle" x="189" y="-10.8" font-family="Times,serif" font-size="24.00">D</text>
</g>
<!-- D&#45;&gt;B -->
<g id="edge1" class="edge">
<title>D&#45;&gt;B</title>
<path fill="none" stroke="black" d="M169.8,-34.12C159.49,-42.77 146.6,-53.6 135.26,-63.12"/>
<polygon fill="black" stroke="black" points="132.75,-60.65 127.34,-69.76 137.25,-66.02 132.75,-60.65"/>
</g>
<!-- D&#45;&gt;C -->
<g id="edge2" class="edge">
<title>D&#45;&gt;C</title>
<path fill="none" stroke="black" d="M208.2,-34.12C218.51,-42.77 231.4,-53.6 242.74,-63.12"/>
<polygon fill="black" stroke="black" points="240.75,-66.02 250.66,-69.76 245.25,-60.65 240.75,-66.02"/>
</g>
</g>
</svg>
