<?xml version="1.0" encoding="UTF-8" standalone="no"?>
<!DOCTYPE svg PUBLIC "-//W3C//DTD SVG 1.1//EN"
 "http://www.w3.org/Graphics/SVG/1.1/DTD/svg11.dtd">
<!-- Generated by graphviz version 2.42.4 (0)
 -->
<!-- Title: nonvirt Pages: 1 -->
<svg width="224pt" height="182pt"
 viewBox="0.00 0.00 224.00 182.00" xmlns="http://www.w3.org/2000/svg" xmlns:xlink="http://www.w3.org/1999/xlink">
<g id="graph0" class="graph" transform="scale(1 1) rotate(0) translate(4 178)">
<title>nonvirt</title>
<polygon fill="white" stroke="transparent" points="-4,4 -4,-178 220,-178 220,4 -4,4"/>
<!-- L1 -->
<g id="node1" class="node">
<title>L1</title>
<text text-anchor="middle" x="27" y="-150.8" font-family="Times,serif" font-size="24.00">L</text>
</g>
<!-- L2 -->
<g id="node2" class="node">
<title>L2</title>
<text text-anchor="middle" x="189" y="-150.8" font-family="Times,serif" font-size="24.00">L</text>
</g>
<!-- A -->
<g id="node3" class="node">
<title>A</title>
<text text-anchor="middle" x="27" y="-80.8" font-family="Times,serif" font-size="24.00">A</text>
</g>
<!-- A&#45;&gt;L1 -->
<g id="edge4" class="edge">
<title>A&#45;&gt;L1</title>
<path fill="none" stroke="black" d="M27,-104.12C27,-111.63 27,-120.77 27,-129.27"/>
<polygon fill="black" stroke="black" points="23.5,-129.53 27,-139.53 30.5,-129.53 23.5,-129.53"/>
</g>
<!-- B -->
<g id="node4" class="node">
<title>B</title>
<text text-anchor="middle" x="189" y="-80.8" font-family="Times,serif" font-size="24.00">B</text>
</g>
<!-- B&#45;&gt;L2 -->
<g id="edge3" class="edge">
<title>B&#45;&gt;L2</title>
<path fill="none" stroke="black" d="M189,-104.12C189,-111.63 189,-120.77 189,-129.27"/>
<polygon fill="black" stroke="black" points="185.5,-129.53 189,-139.53 192.5,-129.53 185.5,-129.53"/>
</g>
<!-- C -->
<g id="node5" class="node">
<title>C</title>
<text text-anchor="middle" x="108" y="-10.8" font-family="Times,serif" font-size="24.00">C</text>
</g>
<!-- C&#45;&gt;A -->
<g id="edge2" class="edge">
<title>C&#45;&gt;A</title>
<path fill="none" stroke="black" d="M88.8,-34.12C78.49,-42.77 65.6,-53.6 54.26,-63.12"/>
<polygon fill="black" stroke="black" points="51.75,-60.65 46.34,-69.76 56.25,-66.02 51.75,-60.65"/>
</g>
<!-- C&#45;&gt;B -->
<g id="edge1" class="edge">
<title>C&#45;&gt;B</title>
<path fill="none" stroke="black" d="M127.2,-34.12C137.51,-42.77 150.4,-53.6 161.74,-63.12"/>
<polygon fill="black" stroke="black" points="159.75,-66.02 169.66,-69.76 164.25,-60.65 159.75,-66.02"/>
</g>
</g>
</svg>
