<?xml version="1.0" encoding="UTF-8" standalone="no"?>
<!DOCTYPE svg PUBLIC "-//W3C//DTD SVG 1.1//EN"
 "http://www.w3.org/Graphics/SVG/1.1/DTD/svg11.dtd">
<!-- Generated by graphviz version 2.42.4 (0)
 -->
<!-- Title: virtnonvirt Pages: 1 -->
<svg width="386pt" height="182pt"
 viewBox="0.00 0.00 386.00 182.00" xmlns="http://www.w3.org/2000/svg" xmlns:xlink="http://www.w3.org/1999/xlink">
<g id="graph0" class="graph" transform="scale(1 1) rotate(0) translate(4 178)">
<title>virtnonvirt</title>
<polygon fill="white" stroke="transparent" points="-4,4 -4,-178 382,-178 382,4 -4,4"/>
<!-- B1 -->
<g id="node1" class="node">
<title>B1</title>
<text text-anchor="middle" x="108" y="-150.8" font-family="Times,serif" font-size="24.00">B</text>
</g>
<!-- B2 -->
<g id="node2" class="node">
<title>B2</title>
<text text-anchor="middle" x="351" y="-150.8" font-family="Times,serif" font-size="24.00">B</text>
</g>
<!-- AA -->
<g id="node3" class="node">
<title>AA</title>
<text text-anchor="middle" x="108" y="-10.8" font-family="Times,serif" font-size="24.00">AA</text>
</g>
<!-- X -->
<g id="node4" class="node">
<title>X</title>
<text text-anchor="middle" x="27" y="-80.8" font-family="Times,serif" font-size="24.00">X</text>
</g>
<!-- AA&#45;&gt;X -->
<g id="edge1" class="edge">
<title>AA&#45;&gt;X</title>
<path fill="none" stroke="black" d="M88.8,-34.12C78.49,-42.77 65.6,-53.6 54.26,-63.12"/>
<polygon fill="black" stroke="black" points="51.75,-60.65 46.34,-69.76 56.25,-66.02 51.75,-60.65"/>
</g>
<!-- Y -->
<g id="node5" class="node">
<title>Y</title>
<text text-anchor="middle" x="189" y="-80.8" font-family="Times,serif" font-size="24.00">Y</text>
</g>
<!-- AA&#45;&gt;Y -->
<g id="edge2" class="edge">
<title>AA&#45;&gt;Y</title>
<path fill="none" stroke="black" d="M127.2,-34.12C137.51,-42.77 150.4,-53.6 161.74,-63.12"/>
<polygon fill="black" stroke="black" points="159.75,-66.02 169.66,-69.76 164.25,-60.65 159.75,-66.02"/>
</g>
<!-- Z -->
<g id="node6" class="node">
<title>Z</title>
<text text-anchor="middle" x="351" y="-80.8" font-family="Times,serif" font-size="24.00">Z</text>
</g>
<!-- AA&#45;&gt;Z -->
<g id="edge5" class="edge">
<title>AA&#45;&gt;Z</title>
<path fill="none" stroke="black" d="M135.4,-25.67C179.09,-37.89 264.6,-61.82 313.78,-75.58"/>
<polygon fill="black" stroke="black" points="313.12,-79.04 323.7,-78.36 315.01,-72.29 313.12,-79.04"/>
</g>
<!-- X&#45;&gt;B1 -->
<g id="edge3" class="edge">
<title>X&#45;&gt;B1</title>
<path fill="none" stroke="black" d="M46.2,-104.12C56.51,-112.77 69.4,-123.6 80.74,-133.12"/>
<polygon fill="black" stroke="black" points="78.75,-136.02 88.66,-139.76 83.25,-130.65 78.75,-136.02"/>
</g>
<!-- Y&#45;&gt;B1 -->
<g id="edge4" class="edge">
<title>Y&#45;&gt;B1</title>
<path fill="none" stroke="black" d="M169.8,-104.12C159.49,-112.77 146.6,-123.6 135.26,-133.12"/>
<polygon fill="black" stroke="black" points="132.75,-130.65 127.34,-139.76 137.25,-136.02 132.75,-130.65"/>
</g>
<!-- Z&#45;&gt;B2 -->
<g id="edge6" class="edge">
<title>Z&#45;&gt;B2</title>
<path fill="none" stroke="black" d="M351,-104.12C351,-111.63 351,-120.77 351,-129.27"/>
<polygon fill="black" stroke="black" points="347.5,-129.53 351,-139.53 354.5,-129.53 347.5,-129.53"/>
</g>
</g>
</svg>
