<?xml version="1.0" encoding="UTF-8" standalone="no"?>
<!DOCTYPE svg PUBLIC "-//W3C//DTD SVG 1.1//EN"
 "http://www.w3.org/Graphics/SVG/1.1/DTD/svg11.dtd">
<!-- Generated by graphviz version 2.42.4 (0)
 -->
<!-- Title: categories Pages: 1 -->
<svg width="409pt" height="182pt"
 viewBox="0.00 0.00 408.50 182.00" xmlns="http://www.w3.org/2000/svg" xmlns:xlink="http://www.w3.org/1999/xlink">
<g id="graph0" class="graph" transform="scale(1 1) rotate(0) translate(4 178)">
<title>categories</title>
<polygon fill="white" stroke="transparent" points="-4,4 -4,-178 404.5,-178 404.5,4 -4,4"/>
<!-- expression -->
<g id="node1" class="node">
<title>expression</title>
<text text-anchor="middle" x="193.5" y="-150.8" font-family="Times,serif" font-size="24.00">expression</text>
</g>
<!-- glvalue -->
<g id="node2" class="node">
<title>glvalue</title>
<text text-anchor="middle" x="117.5" y="-80.8" font-family="Times,serif" font-size="24.00">glvalue</text>
</g>
<!-- expression&#45;&gt;glvalue -->
<g id="edge1" class="edge">
<title>expression&#45;&gt;glvalue</title>
<path fill="none" stroke="black" d="M175.49,-139.88C165.9,-131.31 153.95,-120.61 143.39,-111.16"/>
<polygon fill="black" stroke="black" points="145.43,-108.29 135.65,-104.24 140.76,-113.51 145.43,-108.29"/>
</g>
<!-- rvalue -->
<g id="node5" class="node">
<title>rvalue</title>
<text text-anchor="middle" x="270.5" y="-80.8" font-family="Times,serif" font-size="24.00">rvalue</text>
</g>
<!-- expression&#45;&gt;rvalue -->
<g id="edge4" class="edge">
<title>expression&#45;&gt;rvalue</title>
<path fill="none" stroke="black" d="M211.75,-139.88C221.55,-131.23 233.81,-120.4 244.59,-110.88"/>
<polygon fill="black" stroke="black" points="246.94,-113.48 252.12,-104.24 242.3,-108.23 246.94,-113.48"/>
</g>
<!-- lvalue -->
<g id="node3" class="node">
<title>lvalue</title>
<text text-anchor="middle" x="44.5" y="-10.8" font-family="Times,serif" font-size="24.00">lvalue</text>
</g>
<!-- glvalue&#45;&gt;lvalue -->
<g id="edge2" class="edge">
<title>glvalue&#45;&gt;lvalue</title>
<path fill="none" stroke="black" d="M100.2,-69.88C90.99,-61.31 79.51,-50.61 69.37,-41.16"/>
<polygon fill="black" stroke="black" points="71.63,-38.49 61.93,-34.24 66.86,-43.61 71.63,-38.49"/>
</g>
<!-- xvalue -->
<g id="node4" class="node">
<title>xvalue</title>
<text text-anchor="middle" x="190.5" y="-10.8" font-family="Times,serif" font-size="24.00">xvalue</text>
</g>
<!-- glvalue&#45;&gt;xvalue -->
<g id="edge3" class="edge">
<title>glvalue&#45;&gt;xvalue</title>
<path fill="none" stroke="black" d="M134.8,-69.88C144.01,-61.31 155.49,-50.61 165.63,-41.16"/>
<polygon fill="black" stroke="black" points="168.14,-43.61 173.07,-34.24 163.37,-38.49 168.14,-43.61"/>
</g>
<!-- rvalue&#45;&gt;xvalue -->
<g id="edge5" class="edge">
<title>rvalue&#45;&gt;xvalue</title>
<path fill="none" stroke="black" d="M251.54,-69.88C241.35,-61.23 228.62,-50.4 217.42,-40.88"/>
<polygon fill="black" stroke="black" points="219.49,-38.04 209.6,-34.24 214.95,-43.38 219.49,-38.04"/>
</g>
<!-- prvalue -->
<g id="node6" class="node">
<title>prvalue</title>
<text text-anchor="middle" x="346.5" y="-10.8" font-family="Times,serif" font-size="24.00">prvalue</text>
</g>
<!-- rvalue&#45;&gt;prvalue -->
<g id="edge6" class="edge">
<title>rvalue&#45;&gt;prvalue</title>
<path fill="none" stroke="black" d="M288.51,-69.88C298.1,-61.31 310.05,-50.61 320.61,-41.16"/>
<polygon fill="black" stroke="black" points="323.24,-43.51 328.35,-34.24 318.57,-38.29 323.24,-43.51"/>
</g>
</g>
</svg>
